<?xml version="1.0" encoding="utf-8"?>
<!-- Generator: Adobe Illustrator 19.0.0, SVG Export Plug-In . SVG Version: 6.00 Build 0)  -->
<svg version="1.1" id="Layer_1" xmlns="http://www.w3.org/2000/svg" xmlns:xlink="http://www.w3.org/1999/xlink" x="0px" y="0px"
	 viewBox="0 0 200 200" style="enable-background:new 0 0 200 200;" xml:space="preserve">
<g>
	<path d="M0,29.7C0,12,12.2,0,28.4,0c5.8,0,9.4,0.7,14.5,3.5c0,0,0,8.5,0,15c-3.3-2.7-7-4.8-13.8-4.8c-9.4,0-14.5,6.8-14.5,16.2
		c0,8.9,6.6,14.8,15.3,14.8c5.3,0,9.3-2.1,13-4.5c0,0,0,11.7,0,14.5c-4.5,2-8.1,3.7-13.9,3.7C13,58.2,0,46.7,0,29.7z"/>
</g>
</svg>
