<?xml version="1.0" encoding="utf-8"?>
<!-- Generator: Adobe Illustrator 19.0.0, SVG Export Plug-In . SVG Version: 6.00 Build 0)  -->
<svg version="1.1" id="Layer_1" xmlns="http://www.w3.org/2000/svg" xmlns:xlink="http://www.w3.org/1999/xlink" x="0px" y="0px"
	 viewBox="0 0 612 792" style="enable-background:new 0 0 612 792;" xml:space="preserve">
<g>
	<path d="M61.4,70.3h-2.9v19.4H44.1V34.6c0,0,19,0,22,0c9.8,0,18.9,5.5,18.9,17.3c0,7.6-3.3,12.7-9.5,15
		c1.4,2.1,14.8,22.8,14.8,22.8H73C73,89.8,63,72.8,61.4,70.3z M58.2,45.6v13.8h4.6c4,0,7.4-1.7,7.4-6.9c0-4.7-2.5-6.9-7.3-6.9H58.2z
		"/>
	<path d="M107.3,89.8H92l20.4-55.1l16.5-0.1l20.4,55.2h-15.6l-3.7-10.2H111L107.3,89.8z M120.5,51.6l-5.9,16.8h11.7L120.5,51.6z"/>
	<path d="M171.6,70.5v19.2h-14.4V34.6c0,0,15.9,0,24.6,0c9.8,0,17.4,6.7,17.4,18.5c0,11.2-7.6,17.4-16.9,17.4
		C178.3,70.5,171.6,70.5,171.6,70.5z M171.3,45.5v14.5h5c4.4,0,8.5-1.4,8.5-7.4c0-5.5-3.6-7.1-8.4-7.1H171.3z"/>
	<path d="M222.2,89.8h-14.4V34.6h14.4V89.8z"/>
	<path d="M234.5,89.8V34.6c0,0,14.3,0,23,0c14.8,0,26.2,11,26.2,26.9c0,16.1-10.7,28.2-26.1,28.2C249,89.8,234.5,89.8,234.5,89.8z
		 M249.1,46.6v30.7h6.3c8.5,0,13.8-6.8,13.8-16.1c0-8.4-5.6-14.7-13.3-14.7H249.1z"/>
	<path d="M311.7,62.7c0-17.6,12.2-29.7,28.4-29.7c5.8,0,9.4,0.7,14.5,3.5c0,0,0,8.5,0,15c-3.3-2.7-7-4.8-13.8-4.8
		c-9.4,0-14.5,6.8-14.5,16.2c0,8.9,6.6,14.8,15.3,14.8c5.3,0,9.3-2.1,13-4.5c0,0,0,11.7,0,14.5c-4.5,2-8.1,3.7-13.9,3.7
		C324.7,91.2,311.7,79.7,311.7,62.7z"/>
	<path d="M379.3,89.8h-14.4V34.6h14.4V89.8z"/>
	<path d="M397.6,89.8V47.8h-11.4V34.7H424v13.1h-11.4v42.1H397.6z"/>
	<path d="M425.9,34.6h17.9l10.4,17l10.2-17h17.3l-20.4,30.7v24.5H447V65.6L425.9,34.6z"/>
</g>
</svg>
